Coordinates
version=1
nRows=24
nColumns=24
inDegrees=yes

Units are S.I. units (second, meters, Newtons, ...)
Angles are in degrees.

endheader
time	pelvis_tilt	pelvis_list	pelvis_rotation	pelvis_tx	pelvis_ty	pelvis_tz	hip_flexion_r	hip_adduction_r	hip_rotation_r	knee_angle_r	ankle_angle_r	subtalar_angle_r	mtp_angle_r	hip_flexion_l	hip_adduction_l	hip_rotation_l	knee_angle_l	ankle_angle_l	subtalar_angle_l	mtp_angle_l	lumbar_extension	lumbar_bending	lumbar_rotation
      4.03500000	     -5.66892657	      3.04769309	      7.30763232	     -0.37538510	     -0.03698609	     -0.14385911	     37.17727768	     -3.27026141	     -5.11845098	    -16.55372452	      1.57423300	     10.44385183	     10.32914783	     -7.76036222	      7.51446432	     -6.59785637	    -24.13839778	     17.02509822	     23.45956995	     -9.44474834	      2.11677550	     -6.79693404	    -12.50535702
      4.04000000	     -5.69240215	      2.82956106	      7.41946191	     -0.36761211	     -0.03758908	     -0.14357324	     37.13675773	     -3.00892151	     -5.28056541	    -17.36450132	      1.34793047	     10.41963524	     10.38163477	     -7.74428278	      7.00399363	     -6.72012345	    -25.10568897	     16.42035892	     23.89683533	     -9.04011332	      2.33446358	     -6.55954871	    -12.57791297
      4.04500000	     -5.60185742	      2.66368664	      7.44067378	     -0.35989672	     -0.03795068	     -0.14318323	     36.94249396	     -2.70556498	     -5.15774592	    -18.01773017	      0.52372391	      9.88969979	     11.24565341	     -7.94642659	      6.57384406	     -6.74465440	    -25.57478506	     14.42113930	     23.83419712	     -3.93025501	      2.40520697	     -6.35225997	    -12.54333416
      4.05000000	     -5.60729493	      2.39587551	      7.43202279	     -0.35210508	     -0.03845407	     -0.14261005	     36.87336155	     -2.26603643	     -4.93143280	    -18.75413009	     -0.13055764	      9.45780560	     11.18457099	     -7.85085791	      5.95248750	     -7.14277715	    -26.63567874	     13.50987933	     24.43691629	     -2.91586992	      2.61019373	     -6.06387307	    -12.46763246
      4.05500000	     -5.57303230	      2.07774590	      7.44731348	     -0.34427224	     -0.03867735	     -0.14225500	     36.71102817	     -1.82020939	     -4.80645793	    -19.32239141	     -1.20130650	      8.96281821	     11.84603247	     -7.88117078	      5.34074133	     -7.20682616	    -27.23561976	     11.39731993	     24.41034361	      1.97995509	      2.78128645	     -5.68429021	    -12.41804498
      4.06000000	     -5.63973511	      1.75553700	      7.39278551	     -0.33656361	     -0.03911479	     -0.14153957	     36.73822117	     -1.28227198	     -4.44595052	    -20.03720117	     -2.08997768	      8.41776235	     11.59363590	     -7.59617205	      4.63076098	     -7.65689832	    -28.43416767	     10.22371491	     25.08847770	      3.18481342	      3.03588034	     -5.35075999	    -12.25104567
      4.06500000	     -5.62083376	      1.34742420	      7.34477403	     -0.32867019	     -0.03921388	     -0.14107556	     36.60497158	     -0.68843598	     -4.16819538	    -20.60914993	     -3.14912240	      7.96062778	     11.68884969	     -7.51172977	      3.88470510	     -7.85519636	    -29.09482576	      7.76561274	     25.10061745	      8.54785290	      3.24462775	     -4.86986564	    -12.10127805
      4.07000000	     -5.67256808	      0.93729509	      7.26106449	     -0.32086846	     -0.03943587	     -0.14040059	     36.59617789	     -0.03334900	     -3.70509074	    -21.27215164	     -4.11829812	      7.39740227	     11.28965125	     -7.21101768	      3.08632822	     -8.21000624	    -30.11367768	      5.73081595	     25.43613453	     11.84447933	      3.50981052	     -4.42027436	    -11.88919077
      4.07500000	     -5.74195732	      0.54240459	      7.07191903	     -0.31302809	     -0.03967138	     -0.13962045	     36.62092321	      0.70091499	     -3.01642115	    -21.95087270	     -5.14870547	      6.63127760	     10.83426214	     -6.86571256	      2.32217035	     -8.60050598	    -31.18755870	      3.62557458	     25.67877182	     14.44477454	      3.80499858	     -3.97289346	    -11.52964977
      4.08000000	     -5.84028783	      0.08863313	      7.05801528	     -0.30526909	     -0.03987766	     -0.13903747	     36.66583222	      1.35971188	     -2.60482754	    -22.65425806	     -5.95866770	      6.10988134	     10.39520150	     -6.38442030	      1.46004880	     -8.82601552	    -32.29936556	      1.17547122	     25.85368616	     18.11831795	      4.10985152	     -3.49330711	    -11.43237096
      4.08500000	     -5.90777618	     -0.33093670	      6.87817121	     -0.29743326	     -0.04011265	     -0.13827505	     36.68359258	      2.12513474	     -1.92110986	    -23.37404245	     -6.75816135	      5.37267625	      9.91358494	     -5.92808688	      0.65439710	     -9.14906176	    -33.47755583	     -1.25499980	     25.93445653	     20.56645283	      4.39930532	     -3.02096932	    -11.09796529
      4.09000000	     -6.04024970	     -0.77062431	      6.76685832	     -0.28962685	     -0.04041593	     -0.13762468	     36.75869484	      2.85461180	     -1.35877679	    -24.09553902	     -7.43048170	      4.62084682	      9.48411712	     -5.31973089	     -0.15783742	     -9.32674474	    -34.73560446	     -3.82296191	     25.86024951	     22.85723674	      4.75715947	     -2.54248158	    -10.85850174
      4.09500000	     -6.14772186	     -1.21099834	      6.66853076	     -0.28187391	     -0.04070364	     -0.13702230	     36.78457244	      3.57718726	     -0.84831637	    -24.78843901	     -8.00404018	      3.80647038	      9.12710773	     -4.67436650	     -0.95193060	     -9.40600343	    -36.05976404	     -6.47473802	     25.59343392	     24.59035000	      5.07689267	     -2.06068581	    -10.64552071
      4.10000000	     -6.23550097	     -1.58918695	      6.59544472	     -0.27430914	     -0.04097893	     -0.13649096	     36.78527850	      4.22521113	     -0.36571172	    -25.48484872	     -8.47724962	      2.91829227	      8.82091079	     -3.96183408	     -1.62607700	     -9.29827147	    -37.52775486	     -9.03143988	     25.10625154	     24.84851570	      5.33549752	     -1.64224779	    -10.47671024
      4.10500000	     -6.27660344	     -2.01116708	      6.43507302	     -0.26666327	     -0.04125833	     -0.13588348	     36.70258820	      4.95043327	      0.03212999	    -26.11140001	     -8.82073195	      2.14752217	      8.79966970	     -3.30556965	     -2.36804878	     -9.38819353	    -38.84438789	    -12.05298857	     24.31075703	     26.48818371	      5.56159740	     -1.16037989	    -10.21029944
      4.11000000	     -6.28278603	     -2.46120551	      6.30562451	     -0.25910960	     -0.04153221	     -0.13539549	     36.55552338	      5.66944238	      0.33448841	    -26.71119944	     -8.91845392	      1.52422498	      8.70764340	     -2.58263726	     -3.09940226	     -9.36006832	    -40.38917283	    -14.70589830	     23.35441297	     26.00469393	      5.74149223	     -0.63925846	     -9.97659217
      4.11500000	     -6.36556042	     -2.84335068	      6.11003357	     -0.25170972	     -0.04186567	     -0.13471353	     36.48138488	      6.37803748	      0.70883716	    -27.27743022	     -9.10776971	      0.66116629	      8.65587992	     -1.74029235	     -3.72237911	     -9.29046729	    -41.91533863	    -17.48013557	     22.22921983	     25.39895076	      5.96990554	     -0.20737586	     -9.66951612
      4.12000000	     -6.37295245	     -3.32897202	      5.91641764	     -0.24429202	     -0.04216415	     -0.13411351	     36.27418008	      7.15829873	      0.90852775	    -27.74386843	     -9.05383087	      0.03975116	      8.72703598	     -0.92311483	     -4.47223386	     -9.31588908	    -43.49117735	    -20.20313444	     20.82280950	     24.56170430	      6.13070167	      0.35725694	     -9.39872598
      4.12500000	     -6.57055206	     -3.68935659	      5.62235145	     -0.23710825	     -0.04264109	     -0.13335830	     36.27822217	      7.85909851	      1.25594408	    -28.16380106	     -9.32201575	     -0.84106532	      9.49705324	      0.16480610	     -5.02248797	     -9.30934187	    -45.21265952	    -22.57571046	     19.34945785	     22.07933367	      6.45315284	      0.76797968	     -8.97510848
      4.13000000	     -6.56534818	     -4.12948835	      5.38894810	     -0.22999336	     -0.04285997	     -0.13267627	     36.00777404	      8.61024518	      1.43703589	    -28.50871058	     -9.27878097	     -1.49455295	      9.90173947	      1.08846939	     -5.68279562	     -9.29468734	    -46.94874499	    -24.77846593	     17.69479478	     19.16939950	      6.54339565	      1.27708046	     -8.64327629
      4.13500000	     -6.60140677	     -4.56745905	      5.13583257	     -0.22297383	     -0.04310179	     -0.13191849	     35.75737579	      9.36812191	      1.62320012	    -28.81606012	     -9.15103268	     -2.09893967	     10.18167305	      2.10188670	     -6.33704137	     -9.28815929	    -48.71687056	    -26.73027580	     15.95984177	     15.95366294	      6.66730999	      1.77229638	     -8.28967278
      4.14000000	     -6.62309792	     -5.02197027	      4.87214366	     -0.21602331	     -0.04327529	     -0.13112222	     35.45494267	     10.14821991	      1.79013795	    -29.05702957	     -8.98887240	     -2.68791022	     10.39525627	      3.13786667	     -7.00915033	     -9.28905584	    -50.51501579	    -28.31016260	     14.16698661	     12.19228064	      6.76617115	      2.27970398	     -7.93413845
      4.14500000	     -6.63756844	     -5.47267264	      4.61120492	     -0.20916506	     -0.04337673	     -0.13029482	     35.11595901	     10.91755598	      1.91249840	    -29.24570032	     -8.79531604	     -3.23659108	     10.51546711	      4.20116012	     -7.67688318	     -9.26963959	    -52.32480595	    -29.47428840	     12.42283264	      8.15426274	      6.84255853	      2.77217151	     -7.59079346
      4.15000000	     -6.65372243	     -5.91544873	      4.36643610	     -0.20240334	     -0.04342448	     -0.12946709	     34.74100414	     11.67678833	      2.08803700	    -29.38014009	     -8.54009140	     -3.76254892	     10.55734258	      5.30701292	     -8.33187470	     -9.22332934	    -54.14153188	    -30.23179298	     10.69332140	      4.02508659	      6.91043574	      3.25669787	     -7.22973445
